<svg width="43" height="43" viewBox="0 0 43 43" fill="none" xmlns="http://www.w3.org/2000/svg">
<path d="M4.38045 11.616L21.5 1.73205L38.6195 11.616V31.384L21.5 41.2679L4.38045 31.384V11.616Z" stroke="#4CF2FB" stroke-width="3"/>
<path d="M16.5852 28V14.9091H21.1619C22.0739 14.9091 22.826 15.0668 23.4183 15.3821C24.0107 15.6932 24.4517 16.1129 24.7415 16.6413C25.0313 17.1655 25.1761 17.7472 25.1761 18.3864C25.1761 18.9489 25.076 19.4134 24.8757 19.7798C24.6797 20.1463 24.4197 20.4361 24.0959 20.6491C23.7763 20.8622 23.429 21.0199 23.054 21.1222V21.25C23.4545 21.2756 23.8572 21.4162 24.2621 21.6719C24.6669 21.9276 25.0057 22.294 25.2784 22.7713C25.5511 23.2486 25.6875 23.8324 25.6875 24.5227C25.6875 25.179 25.5384 25.7692 25.2401 26.2933C24.9418 26.8175 24.4709 27.233 23.8274 27.5398C23.1839 27.8466 22.3466 28 21.3153 28H16.5852ZM18.1705 26.5938H21.3153C22.3509 26.5938 23.0859 26.3935 23.5206 25.9929C23.9595 25.5881 24.179 25.098 24.179 24.5227C24.179 24.0795 24.0661 23.6705 23.8402 23.2955C23.6143 22.9162 23.2926 22.6136 22.875 22.3878C22.4574 22.1577 21.9631 22.0426 21.392 22.0426H18.1705V26.5938ZM18.1705 20.6619H21.1108C21.5881 20.6619 22.0185 20.5682 22.402 20.3807C22.7898 20.1932 23.0966 19.929 23.3224 19.5881C23.5526 19.2472 23.6676 18.8466 23.6676 18.3864C23.6676 17.8111 23.4673 17.3232 23.0668 16.9226C22.6662 16.5178 22.0313 16.3153 21.1619 16.3153H18.1705V20.6619Z" fill="#4CF2FB"/>
</svg>
